# xmcd
#
# Track frame offsets: 
#        150
#        20860
#        39395
#        58230
#        73561
#        88421
#        104218
#        125903
#        142113
#        158210
#
# Disc length: 2358 seconds
#
# Revision: 0
# Processed by: cddbd v1.5.2PL0 Copyright (c) Steve Scherf et al.
# Submitted via: ExactAudioCopy v1.3
#
DISCID=a209340a
DTITLE=費玉清 - 凱旋
DYEAR=2019
DGENRE=國語歌曲
TTITLE0=凱旋
TTITLE1=蘆花舟
TTITLE2=愛不只是一聲嘆息
TTITLE3=千里單騎
TTITLE4=水汪汪
TTITLE5=故鄉的女孩
TTITLE6=牛郎織女
TTITLE7=撥動塵封的琴弦
TTITLE8=日子
TTITLE9=當你不在時
EXTD=
EXTT0=
EXTT1=
EXTT2=
EXTT3=
EXTT4=
EXTT5=
EXTT6=
EXTT7=
EXTT8=
EXTT9=
PLAYORDER=
